<?xml version="1.0" standalone="no"?>
<!DOCTYPE svg PUBLIC "-//W3C//DTD SVG 20010904//EN"
 "http://www.w3.org/TR/2001/REC-SVG-20010904/DTD/svg10.dtd">
<svg version="1.0" xmlns="http://www.w3.org/2000/svg"
 width="96.000000pt" height="96.000000pt" viewBox="0 0 96.000000 96.000000"
 preserveAspectRatio="xMidYMid meet">
<metadata>
Created by potrace 1.11, written by Peter Selinger 2001-2013
</metadata>
<g transform="translate(0.000000,96.000000) scale(0.100000,-0.100000)"
fill="#000000" stroke="none">
<path d="M210 724 c32 -8 275 -32 283 -27 4 2 7 11 7 19 0 12 -26 14 -152 13
-84 -1 -146 -3 -138 -5z"/>
<path d="M525 718 c-4 -14 -85 -490 -85 -502 0 -4 35 -6 77 -4 l78 3 14 88 14
87 58 0 c70 0 68 9 33 -158 -4 -21 -2 -22 76 -22 67 0 80 3 80 16 0 13 9 15
45 12 25 -2 45 0 45 4 0 5 -19 8 -41 8 l-42 0 7 53 c12 89 15 96 49 100 l32 4
-31 1 c-30 2 -31 4 -25 34 5 23 14 34 31 39 24 7 24 7 3 8 -31 1 -33 50 -3 58
23 6 27 23 5 23 -12 0 -14 7 -9 28 4 15 10 29 13 32 3 3 7 26 7 53 l1 47 -77
0 -78 0 -12 -82 c-7 -46 -17 -89 -23 -95 -9 -12 -98 -18 -109 -8 -3 3 1 38 8
78 21 115 25 107 -61 107 -52 0 -77 -4 -80 -12z"/>
<path d="M250 641 c8 -5 49 -11 90 -15 41 -4 90 -9 108 -13 28 -4 32 -2 32 16
0 20 -4 21 -122 21 -72 0 -117 -4 -108 -9z"/>
<path d="M181 566 c2 -2 56 -9 119 -15 63 -7 127 -14 143 -17 22 -5 27 -2 27
15 0 20 -5 21 -147 21 -80 0 -144 -2 -142 -4z"/>
<path d="M201 485 c7 -7 243 -33 252 -28 4 2 7 11 7 19 0 11 -24 14 -132 14
-72 0 -129 -2 -127 -5z"/>
<path d="M245 394 c164 -21 189 -21 193 -1 3 15 -10 17 -145 16 l-148 -2 100
-13z"/>
<path d="M205 320 c22 -5 82 -12 133 -16 81 -6 92 -5 92 10 0 14 -16 16 -132
15 -97 -1 -122 -4 -93 -9z"/>
<path d="M928 323 c6 -2 18 -2 25 0 6 3 1 5 -13 5 -14 0 -19 -2 -12 -5z"/>
<path d="M131 246 c2 -2 56 -9 119 -15 63 -7 124 -13 135 -14 12 -1 21 5 23
16 3 16 -9 17 -139 17 -78 0 -140 -2 -138 -4z"/>
</g>
</svg>
